<?xml version="1.0" encoding="UTF-8" standalone="no"?>
<svg
   width="14"
   height="14"
   viewBox="0 0 14 14"
   version="1.1"
   id="svg1"
   sodipodi:docname="boat_rental.svg"
   inkscape:version="1.3 (0e150ed, 2023-07-21)"
   xmlns:inkscape="http://www.inkscape.org/namespaces/inkscape"
   xmlns:sodipodi="http://sodipodi.sourceforge.net/DTD/sodipodi-0.dtd"
   xmlns="http://www.w3.org/2000/svg"
   xmlns:svg="http://www.w3.org/2000/svg">
  <defs
     id="defs1" />
  <sodipodi:namedview
     id="namedview1"
     pagecolor="#ffffff"
     bordercolor="#000000"
     borderopacity="0.25"
     inkscape:showpageshadow="2"
     inkscape:pageopacity="0.0"
     inkscape:pagecheckerboard="0"
     inkscape:deskcolor="#d1d1d1"
     inkscape:zoom="61.785714"
     inkscape:cx="7.0647399"
     inkscape:cy="8.9583815"
     inkscape:window-width="1568"
     inkscape:window-height="1212"
     inkscape:window-x="528"
     inkscape:window-y="98"
     inkscape:window-maximized="0"
     inkscape:current-layer="svg1" />
  <path
     id="path1"
     d="m 3.8222656,4.2460938 c -0.013197,0.00348 -0.025693,0.00883 -0.039063,0.011719 -0.015421,0.00334 -0.026334,0.00361 -0.039063,0.00586 0.014968,0.00196 0.029961,0.00384 0.044922,0.00586 0.010868,-0.00795 0.022241,-0.015617 0.033203,-0.023437 z M 6.7538092,4.2967395 3.4520751,8.0415756 0,8.0253906 1.4648438,10.566406 H 12.535156 L 14,8.0253906 H 8.7675781 L 8.816133,2.2088783 Z M 3,11.5 c -0.533897,0 -1.492286,1 -2,1 V 14 c 0.537183,0 1.525425,-1 2,-1 0.504236,0 1.466103,1 2,1 0.475501,0 1.492286,-1 2,-1 0.504236,0 1.521732,1 2,1 0.504236,0 1.525424,-1 2,-1 0.474576,0 1.495765,1 2,1 v -1.5 c -0.415254,0 -1.466104,-1.029661 -2,-1 -0.47827,0 -1.465279,1 -2,1 -0.4449142,0 -1.495764,-1 -2,-1 -0.504236,0 -1.5540978,1 -2,1 -0.475501,0 -1.466103,-1 -2,-1 z"
     sodipodi:nodetypes="ccccsccccccccccsccssssscccssss" />
</svg>
