<?xml version="1.0" encoding="UTF-8" standalone="no"?>
<svg
   width="14"
   height="14"
   viewBox="0 0 14 14"
   version="1.1"
   id="svg1"
   sodipodi:docname="waterfall.svg"
   inkscape:version="1.3 (0e150ed, 2023-07-21)"
   xmlns:inkscape="http://www.inkscape.org/namespaces/inkscape"
   xmlns:sodipodi="http://sodipodi.sourceforge.net/DTD/sodipodi-0.dtd"
   xmlns="http://www.w3.org/2000/svg"
   xmlns:svg="http://www.w3.org/2000/svg">
  <defs
     id="defs1" />
  <sodipodi:namedview
     id="namedview1"
     pagecolor="#ffffff"
     bordercolor="#000000"
     borderopacity="0.25"
     inkscape:showpageshadow="2"
     inkscape:pageopacity="0.0"
     inkscape:pagecheckerboard="0"
     inkscape:deskcolor="#d1d1d1"
     inkscape:zoom="61.785714"
     inkscape:cx="7"
     inkscape:cy="7"
     inkscape:window-width="1392"
     inkscape:window-height="1212"
     inkscape:window-x="280"
     inkscape:window-y="144"
     inkscape:window-maximized="0"
     inkscape:current-layer="svg1" />
  <path
     id="path1"
     d="m 0,1 v 2 h 1 c 0.1040609,0 0.2046301,0.00556 0.3046875,0.011719 0.00666,-0.0033 0.015365,-0.00734 0.027344,-0.013672 0.025877,-0.012977 0.055356,-0.025283 0.074219,-0.033203 0.037214,-0.016859 0.07674,-0.033186 0.1152344,-0.046875 0.039506,-0.013548 0.087935,-0.028426 0.1328125,-0.035156 0.067075,-0.011575 0.134949,-0.020209 0.203125,-0.019531 0.039489,-2.797e-4 0.077727,-2.062e-4 0.1171875,-0.00195 0.00943,-3.7e-4 0.00356,0.00446 0.037109,-0.00391 0.028073,-0.00384 0.055853,-0.00692 0.083984,-0.00781 0.028132,-8.938e-4 0.055703,-0.00129 0.083984,0 0.06737,0.0016 0.1363473,0.00369 0.203125,0.013672 0.063219,0.00959 0.1263264,0.02108 0.1894531,0.03125 0.037939,0.00647 0.074813,0.011572 0.1132813,0.013672 0.040804,0.00351 0.08203,0.0072 0.1230469,0.00586 0.061118,6.8e-4 0.122522,0.00127 0.1835937,0.00391 0.086257,0.00407 0.1720808,0.00885 0.2578125,0.019531 0.080212,0.010771 0.1595707,0.02424 0.2402344,0.03125 0.050384,0.00519 0.101789,0.00797 0.1523437,0.00977 0.034415,-9.82e-5 0.069103,-0.00153 0.1035157,-0.00195 0.038985,-5.4e-4 0.078225,-4.862e-4 0.1171874,-0.00195 0.067413,-0.00274 0.1345592,-0.00913 0.2011719,0.00586 0.031506,0.00737 0.062616,0.016452 0.09375,0.025391 C 5.1780338,3.0363565 6,3.3724959 6,4.75 v 2.5 c 0,1.999996 1.500002,3 2.5,3 0,0 -0.5,-1.000004 -0.5,-3 l 0.099609,-2.5 C 8.1361806,3.8357318 7.3509992,3.4419992 7,3 8.0929978,3 9,3.3000029 9,4.75 v 2.5 c 0,1.999996 1.500002,3 2.5,3 0,0 -0.5,-1.000004 -0.5,-3 V 4.75 C 11,1.750006 7.999998,1 7,1 Z m 1,10 v 2 c 0.6059988,0 1.760392,1 2.4003906,1 0.570999,0 1.791392,-1 2.4003906,-1 0.6049988,0 1.8244386,1 2.3984376,1 0.6039986,0 1.8313922,-1 2.4003902,-1 0.57,0 1.794438,1 2.398438,1 v -2 c -0.498,0 -1.757438,-1.029 -2.398438,-1 -0.573998,0 -1.7583916,1 -2.4003902,1 C 7.6652198,12 6.40578,11 5.8007812,11 5.1957826,11 3.9353896,12 3.4003906,12 2.8293918,12 1.6409988,11 1,11 Z" />
</svg>
